# xmcd
#
# Track frame offsets:
# 150
# 14336
# 29349
# 45944
# 58560
# 72918
# 88858
# 106985
# 124237
# 140964
# 158407
#
# Disc length: 2310 seconds
#
#
# Revision: 0
# Processed by: cddbd v1.5.1PL0 Copyright (c) Steve Scherf et al.
# Submitted via: FreeRIP 2.80 
#
DISCID=9009040b
DTITLE=Lee Greenwood - God Bless The USA
DYEAR=1900
DGENRE=Country
TTITLE0=I.O.U.
TTITLE1=Look What We Made (When We Made Love)
TTITLE2=Two Heart Serenade
TTITLE3=Even Love Can't Save Us Now
TTITLE4=God Bless the USA
TTITLE5=Heartbreak Radio
TTITLE6=Didn't We
TTITLE7=From Now On
TTITLE8=I Still Believe In You
TTITLE9=You Can't Fall In Love When You're Crying
TTITLE10=God Bless The USA
EXTD=
EXTT0=
EXTT1=
EXTT2=
EXTT3=
EXTT4=
EXTT5=
EXTT6=
EXTT7=
EXTT8=
EXTT9=
EXTT10=
PLAYORDER=
